<?xml version="1.0" encoding="utf-8"?>
<!-- Svg Vector Icons : http://www.onlinewebfonts.com/icon -->
<!DOCTYPE svg PUBLIC "-//W3C//DTD SVG 1.1//EN" "http://www.w3.org/Graphics/SVG/1.1/DTD/svg11.dtd">
<svg version="1.1" xmlns="http://www.w3.org/2000/svg" xmlns:xlink="http://www.w3.org/1999/xlink" x="0px" y="0px" viewBox="0 0 256 256" enable-background="new 0 0 256 256" xml:space="preserve">
<metadata> Svg Vector Icons : http://www.onlinewebfonts.com/icon </metadata>
<g><g><path fill="#000000" d="M230.8,10H25.2C16.8,10,10,16.9,10,25.3v205.4c0,8.5,6.8,15.3,15.2,15.3h205.6c8.4,0,15.2-6.9,15.2-15.3V25.3C246,16.9,239.2,10,230.8,10z M131.9,149.9c0,10.7-2.6,19.3-7.9,25.5c-5.2,6.3-13.5,9.4-24.8,9.4s-19.6-3.1-24.8-9.4c-5.2-6.3-7.9-14.8-7.9-25.5V68.6H81v81.3c0,7.6,1.7,13.2,5,16.8c3.3,3.6,7.7,5.4,13.2,5.4c5.4,0,9.8-1.8,13.2-5.4s5-9.2,5-16.8V68.6h14.5V149.9L131.9,149.9z M186.5,183.5H172V68.6h14.4V183.5z"/></g></g>
</svg>